<?xml version="1.0" standalone="no"?>
<!DOCTYPE svg PUBLIC "-//W3C//DTD SVG 20010904//EN"
 "http://www.w3.org/TR/2001/REC-SVG-20010904/DTD/svg10.dtd">
<svg version="1.0" xmlns="http://www.w3.org/2000/svg"
 width="200.000000pt" height="200.000000pt" viewBox="0 0 200.000000 200.000000"
 preserveAspectRatio="xMidYMid meet">
<metadata>
Created by potrace 1.15, written by Peter Selinger 2001-2017
</metadata>
<g transform="translate(0.000000,200.000000) scale(0.100000,-0.100000)"
fill="#000000" stroke="none">
<path d="M674 1250 c-57 -47 -83 -50 -139 -15 -83 51 -165 19 -165 -64 0 -53
7 -69 41 -86 48 -25 83 -19 134 25 62 54 99 54 155 2 49 -48 53 -86 13 -146
-60 -91 -76 -98 -166 -74 -57 15 -93 4 -118 -35 -26 -42 -19 -95 16 -122 80
-61 88 -73 80 -123 -18 -127 -19 -119 13 -152 42 -41 92 -42 133 -1 21 22 29
39 29 66 0 37 1 37 -89 118 -34 31 -39 59 -17 111 21 51 63 79 106 71 43 -8
162 -14 155 -7 -2 2 2 14 10 26 8 11 15 38 15 60 0 31 -8 47 -40 82 -47 52
-51 82 -15 139 33 54 33 105 -1 139 -41 40 -90 36 -150 -14z"/>
<path d="M263 393 c-34 -17 -45 -43 -18 -43 23 0 22 -186 -2 -212 -15 -17 -15
-20 -3 -28 8 -6 25 -10 37 -10 19 0 22 7 27 53 11 99 11 257 1 256 -5 0 -25
-8 -42 -16z"/>
<path d="M703 388 c-32 -19 -43 -38 -23 -38 6 0 10 -36 10 -89 0 -109 7 -118
73 -95 l47 16 0 58 c0 82 -13 114 -45 108 -19 -4 -25 -1 -25 13 0 10 5 21 10
24 14 9 12 25 -2 24 -7 0 -28 -10 -45 -21z"/>
<path d="M968 399 c-28 -11 -28 -11 -28 -104 0 -52 -5 -106 -12 -120 -16 -35
-6 -40 40 -16 34 17 41 18 46 6 7 -19 16 -18 40 0 16 12 17 18 8 27 -16 16
-15 75 1 81 9 4 9 7 0 14 -6 5 -13 33 -15 63 -3 51 -5 55 -28 57 -14 1 -37 -3
-52 -8z"/>
<path d="M473 335 c-33 -14 -33 -14 -33 -88 0 -93 9 -103 73 -81 l47 16 0 65
c0 100 -18 118 -87 88z"/>
<path d="M1186 337 c-15 -11 -16 -17 -7 -35 6 -11 11 -45 11 -74 0 -62 13 -82
43 -67 13 7 22 8 29 1 7 -7 18 -7 34 0 26 12 30 23 14 33 -5 3 -10 38 -10 76
0 54 -4 71 -16 76 -28 11 -39 -15 -36 -85 3 -46 0 -64 -7 -57 -5 6 -11 39 -13
74 -3 68 -12 80 -42 58z"/>
<path d="M1683 340 c-28 -11 -30 -30 -4 -30 35 0 33 -19 -4 -34 -32 -14 -35
-19 -35 -55 0 -49 22 -76 51 -60 14 7 24 7 32 0 8 -6 18 -6 27 -1 11 7 14 26
11 82 -4 105 -18 122 -78 98z"/>
</g>
</svg>
